# xmcd CD database file
#
# Track frame offsets:
#	150
#	18907
#	37475
#	56822
#	86777
#
# Disc length: 4440 seconds
#
# Revision: 0
# Processed by: cddbd v1.5PL3 Copyright (c) Steve Scherf et al.
# Submitted via: CDex 1.50
#
DISCID=42115605
DTITLE=スリーネーション - Honey B
DYEAR=2003
DGENRE=Hip-Hop
TTITLE0=Honey B
TTITLE1=Hey Now (what U wanna do?) 
TTITLE2=Honey B MASTERS OF FUNK Remix 
TTITLE3=Honey B instrumental 
TTITLE4=data
EXTD=YEAR: 2003
EXTT0=
EXTT1=
EXTT2=
EXTT3=
EXTT4=
PLAYORDER=
